{"accessors" : [{"bufferView" : 0, "byteOffset" : 0, "componentType" : 5123, "count" : 156, "type" : "SCALAR", "max" : [79], "min" : [0]}, {"bufferView" : 1, "byteOffset" : 0, "componentType" : 5126, "count" : 80, "type" : "VEC3", "max" : [78.9375, 86.17890167236328, 18.3125], "min" : [0, 4.491396903991699, 5.329070941717225E-15], "name" : "POSITION"}, {"bufferView" : 1, "byteOffset" : 12, "componentType" : 5126, "count" : 80, "type" : "VEC3", "max" : [1.0000044107437134, 1.0000044107437134, 1.0000044107437134], "min" : [-1.0000044107437134, -1.0000044107437134, -2.772862302724728E-15], "name" : "NORMAL"}, {"bufferView" : 1, "byteOffset" : 24, "componentType" : 5126, "count" : 80, "type" : "VEC2", "max" : [11.607830047607422, -0.00840881746262312], "min" : [-8.392547607421875, -5.383799076080322], "name" : "TEXCOORD_0"}, {"bufferView" : 0, "byteOffset" : 312, "componentType" : 5123, "count" : 6, "type" : "SCALAR", "max" : [3], "min" : [0]}, {"bufferView" : 2, "byteOffset" : 0, "componentType" : 5126, "count" : 4, "type" : "VEC3", "max" : [70.6697769165039, 8.665135383605957, 15.75], "min" : [61.150550842285156, 4.491396903991699, 15.75], "name" : "POSITION"}, {"bufferView" : 2, "byteOffset" : 12, "componentType" : 5126, "count" : 4, "type" : "VEC3", "max" : [0, 0, 1.0000044107437134], "min" : [0, 0, 1.0000044107437134], "name" : "NORMAL"}, {"bufferView" : 2, "byteOffset" : 24, "componentType" : 5126, "count" : 4, "type" : "VEC2", "max" : [-0.30579590797424316, -0.2299174964427948], "min" : [-0.40495461225509644, -0.2733938992023468], "name" : "TEXCOORD_0"}, {"bufferView" : 0, "byteOffset" : 324, "componentType" : 5123, "count" : 6, "type" : "SCALAR", "max" : [3], "min" : [0]}, {"bufferView" : 3, "byteOffset" : 0, "componentType" : 5126, "count" : 4, "type" : "VEC3", "max" : [74.76376342773438, 82.00515747070312, 15.4375], "min" : [4.1737380027771, 8.665135383605957, 15.4375], "name" : "POSITION"}, {"bufferView" : 3, "byteOffset" : 12, "componentType" : 5126, "count" : 4, "type" : "VEC3", "max" : [-0, -0, -1.0000044107437134], "min" : [-0, -0, -1.0000044107437134], "name" : "NORMAL"}, {"bufferView" : 0, "byteOffset" : 336, "componentType" : 5123, "count" : 12, "type" : "SCALAR", "max" : [7], "min" : [0]}, {"bufferView" : 4, "byteOffset" : 0, "componentType" : 5126, "count" : 8, "type" : "VEC3", "max" : [17.70747947692871, 8.665135383605957, 15.75], "min" : [8.270469665527344, 4.491396903991699, 15.75], "name" : "POSITION"}, {"bufferView" : 4, "byteOffset" : 12, "componentType" : 5126, "count" : 8, "type" : "VEC3", "max" : [0, 0, 1.0000044107437134], "min" : [0, 0, -1.0000044107437134], "name" : "NORMAL"}, {"bufferView" : 4, "byteOffset" : 24, "componentType" : 5126, "count" : 8, "type" : "VEC2", "max" : [-0.8574866056442261, -0.2299174964427948], "min" : [-0.955788791179657, -0.2733938992023468], "name" : "TEXCOORD_0"}, {"bufferView" : 0, "byteOffset" : 360, "componentType" : 5123, "count" : 6, "type" : "SCALAR", "max" : [3], "min" : [0]}, {"bufferView" : 5, "byteOffset" : 0, "componentType" : 5126, "count" : 4, "type" : "VEC3", "max" : [78.9375, 86.17890167236328, 5.329070941717225E-15], "min" : [0, 4.491396903991699, 5.329070941717225E-15], "name" : "POSITION"}, {"bufferView" : 5, "byteOffset" : 12, "componentType" : 5126, "count" : 4, "type" : "VEC3", "max" : [0, 0, 1.0000044107437134], "min" : [0, 0, 1.0000044107437134], "name" : "NORMAL"}, {"bufferView" : 0, "byteOffset" : 372, "componentType" : 5123, "count" : 162, "type" : "SCALAR", "max" : [105], "min" : [0]}, {"bufferView" : 6, "byteOffset" : 0, "componentType" : 5126, "count" : 106, "type" : "VEC3", "max" : [9.437007904052734, 5.435795783996582, 11.054420471191406], "min" : [0, 0, 0], "name" : "POSITION"}, {"bufferView" : 6, "byteOffset" : 12, "componentType" : 5126, "count" : 106, "type" : "VEC3", "max" : [1.9220924992244093E-18, 0.9998257160186768, 1.0000044107437134], "min" : [-1.9220924992244093E-18, -0.9998257160186768, -1.0000044107437134], "name" : "NORMAL"}, {"bufferView" : 6, "byteOffset" : 24, "componentType" : 5126, "count" : 106, "type" : "VEC2", "max" : [0.09830217063426971, 4.828807868761942E-05], "min" : [0, -0.11287660151720047], "name" : "TEXCOORD_0"}, {"bufferView" : 0, "byteOffset" : 696, "componentType" : 5123, "count" : 162, "type" : "SCALAR", "max" : [105], "min" : [0]}, {"bufferView" : 7, "byteOffset" : 0, "componentType" : 5126, "count" : 106, "type" : "VEC3", "max" : [9.437007904052734, 5.435795783996582, 11.054420471191406], "min" : [0, 0, 0], "name" : "POSITION"}, {"bufferView" : 7, "byteOffset" : 12, "componentType" : 5126, "count" : 106, "type" : "VEC3", "max" : [1.9220924992244093E-18, 0.9998257160186768, 1.0000044107437134], "min" : [-1.9220924992244093E-18, -0.9998257160186768, -1.0000044107437134], "name" : "NORMAL"}, {"bufferView" : 7, "byteOffset" : 24, "componentType" : 5126, "count" : 106, "type" : "VEC2", "max" : [0.09830217063426971, 4.828807868761942E-05], "min" : [0, -0.11287660151720047], "name" : "TEXCOORD_0"}], "asset" : {"generator" : "Aspose.3D 21.5.1", "version" : "2.0"}, "buffers" : [{"uri" : "data:application/octet-stream;base64,", "byteLength" : 17276}], "bufferViews" : [{"buffer" : 0, "byteOffset" : 0, "byteLength" : 1020, "target" : 34963}, {"buffer" : 0, "byteOffset" : 1024, "byteLength" : 4992, "byteStride" : 32, "target" : 34962}, {"buffer" : 0, "byteOffset" : 6020, "byteLength" : 192, "byteStride" : 32, "target" : 34962}, {"buffer" : 0, "byteOffset" : 6216, "byteLength" : 144, "byteStride" : 24, "target" : 34962}, {"buffer" : 0, "byteOffset" : 6364, "byteLength" : 384, "byteStride" : 32, "target" : 34962}, {"buffer" : 0, "byteOffset" : 6752, "byteLength" : 144, "byteStride" : 24, "target" : 34962}, {"buffer" : 0, "byteOffset" : 6900, "byteLength" : 5184, "byteStride" : 32, "target" : 34962}, {"buffer" : 0, "byteOffset" : 12088, "byteLength" : 5184, "byteStride" : 32, "target" : 34962}], "cameras" : [{"perspective" : {"aspectRatio" : 1, "yfov" : 0.6108652381980153, "zfar" : 1000, "znear" : 1}, "type" : "perspective"}], "images" : [{"uri" : "data:image/jpeg;base64,"}, {"uri" : "data:image/jpeg;base64,"}], "materials" : [{"pbrMetallicRoughness" : {"baseColorFactor" : [0.8, 0.8, 0.8, 1], "baseColorTexture" : {"index" : 0, "texCoord" : 0}, "metallicFactor" : 0, "roughnessFactor" : 0}, "emissiveFactor" : [0, 0, 0], "alphaMode" : "OPAQUE", "doubleSided" : false}, {"pbrMetallicRoughness" : {"baseColorFactor" : [0.8, 0.8, 0.8, 1], "baseColorTexture" : {"index" : 0, "texCoord" : 0}, "metallicFactor" : 0, "roughnessFactor" : 0}, "emissiveFactor" : [0, 0, 0], "alphaMode" : "OPAQUE", "doubleSided" : false}, {"pbrMetallicRoughness" : {"baseColorFactor" : [0.8, 0.8, 0.8, 1], "baseColorTexture" : {"index" : 1, "texCoord" : 0}, "metallicFactor" : 0, "roughnessFactor" : 0}, "emissiveFactor" : [0, 0, 0], "alphaMode" : "OPAQUE", "doubleSided" : false}, {"pbrMetallicRoughness" : {"baseColorFactor" : [0.8, 0.8, 0.8, 1], "baseColorTexture" : {"index" : 0, "texCoord" : 0}, "metallicFactor" : 0, "roughnessFactor" : 0}, "emissiveFactor" : [0, 0, 0], "alphaMode" : "OPAQUE", "doubleSided" : false}, {"pbrMetallicRoughness" : {"baseColorFactor" : [0.8, 0.8, 0.8, 1], "baseColorTexture" : {"index" : 0, "texCoord" : 0}, "metallicFactor" : 0, "roughnessFactor" : 0}, "emissiveFactor" : [0, 0, 0], "alphaMode" : "OPAQUE", "doubleSided" : false}, {"pbrMetallicRoughness" : {"baseColorFactor" : [0.8, 0.8, 0.8, 1], "baseColorTexture" : {"index" : 1, "texCoord" : 0}, "metallicFactor" : 0, "roughnessFactor" : 0}, "emissiveFactor" : [0, 0, 0], "alphaMode" : "OPAQUE", "doubleSided" : false}, {"pbrMetallicRoughness" : {"baseColorFactor" : [0.8, 0.8, 0.8, 1], "baseColorTexture" : {"index" : 1, "texCoord" : 0}, "metallicFactor" : 0, "roughnessFactor" : 0}, "emissiveFactor" : [0, 0, 0], "alphaMode" : "OPAQUE", "doubleSided" : false}], "meshes" : [{"primitives" : [{"attributes" : {"POSITION" : 1, "NORMAL" : 2, "TEXCOORD_0" : 3}, "indices" : 0, "material" : 0, "mode" : 4}, {"attributes" : {"POSITION" : 5, "NORMAL" : 6, "TEXCOORD_0" : 7}, "indices" : 4, "material" : 1, "mode" : 4}, {"attributes" : {"POSITION" : 9, "NORMAL" : 10}, "indices" : 8, "material" : 2, "mode" : 4}, {"attributes" : {"POSITION" : 12, "NORMAL" : 13, "TEXCOORD_0" : 14}, "indices" : 11, "material" : 3, "mode" : 4}, {"attributes" : {"POSITION" : 16, "NORMAL" : 17}, "indices" : 15, "material" : 4, "mode" : 4}]}, {"primitives" : [{"attributes" : {"POSITION" : 19, "NORMAL" : 20, "TEXCOORD_0" : 21}, "indices" : 18, "material" : 5, "mode" : 4}]}, {"primitives" : [{"attributes" : {"POSITION" : 23, "NORMAL" : 24, "TEXCOORD_0" : 25}, "indices" : 22, "material" : 6, "mode" : 4}]}], "nodes" : [{"camera" : 0, "matrix" : [0.9089019, 0.41701, 4.163336E-17, 0, -0.09449719, 0.2059631, 0.9739864, 0, 0.4061621, -0.8852581, 0.2266065, 0, 154.3852, -166.1704, 84.38592, 1], "name" : "skp_camera_Last_Saved_SketchUp_View"}, {"matrix" : [1, 0, 0, 0, 0, 1, 0, 0, 0, 0, 1.424769, 0, 8.27047, 0, 0, 1], "mesh" : 1, "name" : "group_0"}, {"matrix" : [1, 0, 0, 0, 0, 1, 0, 0, 0, 0, 1.424769, 0, 61.15055, 0, 0, 1], "mesh" : 2, "name" : "group_1"}, {"children" : [0, 1, 2], "mesh" : 0, "name" : "SketchUp"}], "samplers" : [{"magFilter" : 9729, "minFilter" : 9987, "wrapS" : 10497, "wrapT" : 10497}, {"magFilter" : 9729, "minFilter" : 9987, "wrapS" : 10497, "wrapT" : 10497}], "scene" : 0, "scenes" : [{"nodes" : [3]}], "textures" : [{"sampler" : 0, "source" : 0}, {"sampler" : 1, "source" : 1}]}